<?xml version="1.0" encoding="utf-8"?>
<!-- Generator: Adobe Illustrator 15.0.0, SVG Export Plug-In . SVG Version: 6.00 Build 0)  -->
<!DOCTYPE svg PUBLIC "-//W3C//DTD SVG 1.1//EN" "http://www.w3.org/Graphics/SVG/1.1/DTD/svg11.dtd">
<svg version="1.1" id="Layer_1" xmlns="http://www.w3.org/2000/svg" xmlns:xlink="http://www.w3.org/1999/xlink" x="0px" y="0px"
	 width="900px" height="900px" viewBox="0 0 900 900" enable-background="new 0 0 900 900" xml:space="preserve">
<g>
	<path fill="#25363F" d="M582.683,424.224c160.574-17.586,173.785-227.258,173.785-227.258H651.812
		c2.831-24.652,3.483-40.287,3.483-40.287H449.999H244.706c0,0,0.651,15.635,3.484,40.287H143.532
		c0,0,13.213,209.67,173.785,227.258c25.339,39.805,59.431,70.545,105.242,79.358c-7.979,8.805-12.979,21.391-12.979,35.379
		c0,15.771,6.354,29.771,16.175,38.563c-1.516,50.649-42.656,55.646-65.391,61.57c-23.161,6.05-26.188,20.146-26.188,20.146h-37.964
		v84.08h307.574v-84.08h-37.962c0,0-3.028-14.097-26.191-20.146c-22.734-5.926-63.877-10.921-65.389-61.573
		c9.819-8.791,16.173-22.791,16.173-38.562c0-13.988-5-26.574-12.979-35.379C523.252,494.769,557.344,464.027,582.683,424.224z
		 M720.829,229.193c-3.854,18.898-10.496,43.427-21.773,67.949c-13.124,28.532-29.85,51.032-49.712,66.876
		c-11.441,9.129-24.173,16.199-37.829,21.005c-2.928,1.031-5.938,1.929-8.988,2.764c24.57-52.594,37.849-112.811,44.938-158.594
		H720.829L720.829,229.193z M288.928,385.18c-13.57-4.726-26.219-11.665-37.606-20.634c-19.798-15.589-36.51-37.756-49.668-65.884
		c-11.623-24.833-18.464-50.082-22.426-69.469h73.311c7.089,45.785,20.367,106.003,44.939,158.598
		C294.577,386.997,291.714,386.145,288.928,385.18z"/>
	<polygon fill="#FFFFFF" points="449.995,232.3 468.513,289.311 528.464,289.311 479.97,324.54 498.488,381.55 449.995,346.313 
		401.509,381.55 420.021,324.54 371.539,289.311 431.479,289.311 	"/>
</g>
</svg>
